# This file uses centimeters as units for non-parametric coordinates.

mtllib sky.mtl
g default
v -58.623269 51.457800 58.623269
v 58.623269 51.457800 58.623269
v -58.623269 51.457800 -58.623269
v 58.623269 51.457800 -58.623269
vt 0.000000 0.000000
vt 1.000000 0.000000
vt 0.000000 1.000000
vt 1.000000 1.000000
vn 0.000000 1.000000 0.000000
vn 0.000000 1.000000 0.000000
vn 0.000000 1.000000 0.000000
vn 0.000000 1.000000 0.000000
s off
g sky group1
usemtl initialShadingGroup
f 1/1/1 2/2/2 4/4/3 3/3/4
